<?xml version="1.0" encoding="UTF-8" standalone="no"?>
<svg version="1.1" xmlns="http://www.w3.org/2000/svg" style="font-family: Arial; " width="800" height="450" viewBox="0 0 800 450"><title>Mount button with variants</title><defs><clipPath id="chart-clipPath-exact"><rect height="349" width="675"></rect></clipPath><clipPath id="chart-clipPath-buffer"><rect x="-10" y="-10" height="369" width="695"></rect></clipPath></defs><g class="scaler"><rect width="800" height="450" fill="rgba(0, 0, 0, 0)" fill-opacity="0"></rect><g class="canvas" transform="translate(100,51)"><g class="grid"><g class="axis-grid y2" transform="translate(0,0.5)"></g><g class="axis-grid x" transform="translate(0,0)"></g><g class="axis-grid y" transform="translate(0,349)"><line class="grid" x1="0" x2="0" y1="0" y2="-349" style="stroke: #666666; stroke-opacity: 0.3; stroke-width: 1px; " transform="translate(0,0)"></line><line class="grid" x1="0" x2="0" y1="0" y2="-349" style="stroke: #666666; stroke-opacity: 0.3; stroke-width: 1px; " transform="translate(146.73913043478262,0)"></line><line class="grid" x1="0" x2="0" y1="0" y2="-349" style="stroke: #666666; stroke-opacity: 0.3; stroke-width: 1px; " transform="translate(293.47826086956525,0)"></line><line class="grid" x1="0" x2="0" y1="0" y2="-349" style="stroke: #666666; stroke-opacity: 0.3; stroke-width: 1px; " transform="translate(440.2173913043478,0)"></line><line class="grid" x1="0" x2="0" y1="0" y2="-349" style="stroke: #666666; stroke-opacity: 0.3; stroke-width: 1px; " transform="translate(586.9565217391305,0)"></line></g><g class="axis-grid x2" transform="translate(0,1)"></g></g><rect class="trigger-layer" height="400" width="750" opacity="0"></rect><g class="chart"><g class="series s0"><g class="bar"><rect fill="rgb(110, 86, 207)" opacity="1" x="0" width="652.4902173913043" y="265.90476190476187" height="66.47619047619047" clip-path="url(#chart-clipPath-exact)"></rect></g><g class="bar"><rect fill="rgb(110, 86, 207)" opacity="1" x="0" width="360.0097826086957" y="182.8095238095238" height="66.47619047619047" clip-path="url(#chart-clipPath-exact)"></rect></g><g class="bar"><rect fill="rgb(110, 86, 207)" opacity="1" x="0" width="347.27282608695657" y="99.71428571428571" height="66.47619047619047" clip-path="url(#chart-clipPath-exact)"></rect></g><g class="bar"><rect fill="rgb(110, 86, 207)" opacity="1" x="0" width="230.87934782608698" y="16.619047619047617" height="66.47619047619047" clip-path="url(#chart-clipPath-exact)"></rect></g></g></g><g class="axes"><g class="axis-labels"></g><g class="axis left" transform="translate(0,0)"><g class="tick major" style="opacity: 1; display: block; " transform="translate(0,299.1428571428571)"><line x2="-6" y2="0"></line><text x="-9" y="0" dy="7" style="fill: #666666; fill-opacity: 1; font-family: Arial; font-size: 14px; text-anchor: end; " transform="rotate(0, -9, 0)translate(0,0)" data-org-x="-9" data-org-y="0">stitches.js</text></g><g class="tick major" style="opacity: 1; display: block; " transform="translate(0,216.04761904761904)"><line x2="-6" y2="0"></line><text x="-9" y="0" dy="7" style="fill: #666666; fill-opacity: 1; font-family: Arial; font-size: 14px; text-anchor: end; " transform="rotate(0, -9, 0)translate(0,0)" data-org-x="-9" data-org-y="0">tw-classed</text></g><g class="tick major" style="opacity: 1; display: block; " transform="translate(0,132.95238095238093)"><line x2="-6" y2="0"></line><text x="-9" y="0" dy="7" style="fill: #666666; fill-opacity: 1; font-family: Arial; font-size: 14px; text-anchor: end; " transform="rotate(0, -9, 0)translate(0,0)" data-org-x="-9" data-org-y="0">cva</text></g><g class="tick major" style="opacity: 1; display: block; " transform="translate(0,49.85714285714285)"><line x2="-6" y2="0"></line><text x="-9" y="0" dy="7" style="fill: #666666; fill-opacity: 1; font-family: Arial; font-size: 14px; text-anchor: end; " transform="rotate(0, -9, 0)translate(0,0)" data-org-x="-9" data-org-y="0">react</text></g><path class="domain" d="M0,0H0V349H0" stroke-width="0" fill="none" stroke="rgb(188, 188, 188)" stroke-opacity="1"></path></g><g class="axis bottom" transform="translate(0,349)"><g class="tick major" style="opacity: 1; display: block; " transform="translate(0,0)"><line y2="6" x2="0"></line><text y="9" x="0" dy="7" style="fill: #666666; fill-opacity: 1; font-family: Arial; font-size: 14px; text-anchor: middle; " transform="rotate(0, 0, 9)translate(0,0)" data-org-x="0" data-org-y="9">0</text></g><g class="tick major" style="opacity: 1; display: block; " transform="translate(146.73913043478262,0)"><line y2="6" x2="0"></line><text y="9" x="0" dy="7" style="fill: #666666; fill-opacity: 1; font-family: Arial; font-size: 14px; text-anchor: middle; " transform="rotate(0, 0, 9)translate(0,0)" data-org-x="0" data-org-y="9">0.01</text></g><g class="tick major" style="opacity: 1; display: block; " transform="translate(293.47826086956525,0)"><line y2="6" x2="0"></line><text y="9" x="0" dy="7" style="fill: #666666; fill-opacity: 1; font-family: Arial; font-size: 14px; text-anchor: middle; " transform="rotate(0, 0, 9)translate(0,0)" data-org-x="0" data-org-y="9">0.01</text></g><g class="tick major" style="opacity: 1; display: block; " transform="translate(440.2173913043478,0)"><line y2="6" x2="0"></line><text y="9" x="0" dy="7" style="fill: #666666; fill-opacity: 1; font-family: Arial; font-size: 14px; text-anchor: middle; " transform="rotate(0, 0, 9)translate(0,0)" data-org-x="0" data-org-y="9">0.01</text></g><g class="tick major" style="opacity: 1; display: block; " transform="translate(586.9565217391305,0)"><line y2="6" x2="0"></line><text y="9" x="0" dy="7" style="fill: #666666; fill-opacity: 1; font-family: Arial; font-size: 14px; text-anchor: middle; " transform="rotate(0, 0, 9)translate(0,0)" data-org-x="0" data-org-y="9">0.02</text></g><path class="domain" d="M0,0V0H675V0" stroke-width="0" fill="none" stroke="rgb(188, 188, 188)" stroke-opacity="1"></path><path class="filler" d="M0,0V0H0V0" stroke-width="0" fill="none" stroke="rgb(188, 188, 188)" stroke-opacity="1"></path></g></g></g><g class="legend" transform="translate(304.05067443847656,25)"><g class="row" transform="translate(0,0)"><text class="key" style="font-size: 14px; fill: #666666; fill-opacity: 1; " dx="28" dy="14">render ms. (lower is better)</text><path class="shape" d="M0,7.898654169668588A7.898654169668588,7.898654169668588 0 1,1 0,-7.898654169668588A7.898654169668588,7.898654169668588 0 1,1 0,7.898654169668588Z" style="fill: #6e56cf; fill-opacity: 1; " transform="translate(14,9.24)"></path></g></g></g></svg>