<svg width="180" height="178" viewBox="0 0 180 178" fill="none" xmlns="http://www.w3.org/2000/svg">
<g clip-path="url(#clip0_120_121)">
<path d="M110.812 81.0013C107.732 70.2761 101.817 57.0901 94.1597 43.8721C86.5021 30.6522 78.0013 18.9559 70.2227 10.9383C66.3882 6.98423 62.9168 4.1219 59.9029 2.42864C56.4637 0.495907 53.6559 0.128217 51.5571 1.335C49.4603 2.54366 48.3769 5.15332 48.3391 9.09044C48.305 12.5392 49.0576 16.9685 50.5777 22.2557C53.6578 32.979 59.5721 46.1669 67.2296 59.3849C73.4219 70.0743 80.1662 79.7681 86.6345 87.3275C86.9653 86.7241 87.4361 86.1961 88.0393 85.8058C88.7162 85.3684 89.4649 85.1553 90.2382 85.0535C83.8229 77.6336 77.0824 67.9813 70.8845 57.2806C63.3933 44.351 57.6227 31.5007 54.6353 21.0979C53.2286 16.201 52.5309 12.1753 52.5611 9.13381C52.5876 6.52603 53.1756 5.26834 53.671 4.98173C54.1664 4.69512 55.5542 4.81769 57.8307 6.09801C60.4891 7.5914 63.6372 10.2048 67.188 13.8666C74.7321 21.6428 83.0118 33.0488 90.5029 45.9783C97.9941 58.9078 103.765 71.7581 106.752 82.161C108.159 87.0578 108.857 91.0836 108.826 94.125C108.8 96.7328 108.214 97.9905 107.716 98.2771C107.221 98.5637 105.833 98.4431 103.557 97.1609C101.893 96.2256 100.038 94.851 98.0111 93.0559C98.0489 94.3362 97.7256 95.6939 96.8256 96.6348C96.6517 96.8177 96.4626 96.9742 96.2641 97.1118C98.1265 98.6769 99.8716 99.9214 101.484 100.828C103.604 102.02 105.483 102.616 107.106 102.616C108.115 102.616 109.025 102.384 109.83 101.92C111.927 100.711 113.011 98.1018 113.048 94.1646C113.082 90.7178 112.33 86.2866 110.812 80.9994V81.0013Z" fill="#7B5EA7"/>
<path d="M107.106 103.183C105.389 103.183 103.404 102.557 101.207 101.322C99.5767 100.406 97.7899 99.1351 95.8992 97.5455L95.3338 97.0703L95.9408 96.6499C96.1204 96.5254 96.2754 96.3934 96.4153 96.2482C97.3626 95.2583 97.4666 93.8366 97.4439 93.0748L97.4061 91.7662L98.3874 92.6354C100.38 94.4003 102.214 95.758 103.835 96.6706C106.162 97.9792 107.265 97.8868 107.433 97.7888C107.601 97.6926 108.233 96.7856 108.259 94.1213C108.289 91.1345 107.597 87.1634 106.206 82.3175C103.23 71.9561 97.4779 59.1511 90.0113 46.2612C82.5429 33.3694 74.2916 22.0049 66.7796 14.2589C63.2666 10.6366 60.1601 8.05526 57.5508 6.59016C55.2233 5.28155 54.121 5.37395 53.9527 5.472C53.7845 5.56816 53.1529 6.47513 53.1265 9.13948C53.0962 12.1263 53.7882 16.0973 55.1798 20.9433C58.1559 31.3027 63.9076 44.1078 71.3742 56.9996C77.5475 67.6551 84.2181 77.2282 90.6674 84.6858L91.3519 85.4777L90.312 85.6154C89.5084 85.7228 88.8845 85.934 88.3456 86.2829C87.837 86.611 87.4286 87.056 87.1298 87.6028L86.7347 88.3231L86.1996 87.699C79.6595 80.0566 72.9303 70.3647 66.7361 59.6734C59.0559 46.4158 53.1227 33.1827 50.0294 22.4159C48.496 17.0759 47.7359 12.592 47.77 9.08857C47.8116 4.93649 48.9895 2.16467 51.2716 0.848524C53.5557 -0.465735 56.5525 -0.0999299 60.179 1.9384C63.2382 3.65806 66.755 6.55433 70.6273 10.548C78.4361 18.5976 86.9672 30.3335 94.6475 43.5912C102.328 56.8488 108.261 70.08 111.354 80.8486C112.888 86.1905 113.648 90.6744 113.614 94.176C113.572 98.328 112.394 101.1 110.112 102.416C109.223 102.927 108.212 103.187 107.104 103.187L107.106 103.183ZM97.1527 97.1118C98.7958 98.4544 100.344 99.5386 101.764 100.336C104.997 102.154 107.637 102.533 109.547 101.432C111.458 100.331 112.445 97.8849 112.483 94.1609C112.517 90.7687 111.77 86.3922 110.267 81.1559C107.198 70.4741 101.305 57.3334 93.6681 44.1531C86.0332 30.9728 77.5607 19.316 69.8143 11.3305C66.0176 7.41604 62.5897 4.58577 59.625 2.92079C56.3729 1.09177 53.7542 0.724074 51.8427 1.82526C49.9311 2.92645 48.9441 5.37395 48.9063 9.09611C48.8723 12.4902 49.6191 16.8648 51.1223 22.101C54.191 32.781 60.0845 45.9236 67.7212 59.1039C73.7263 69.4709 80.2361 78.8876 86.5777 86.3885C86.9029 85.9736 87.2943 85.6154 87.7311 85.3325C88.1622 85.0535 88.6406 84.8423 89.1813 84.6914C82.8832 77.2924 76.4017 67.9342 70.3948 57.5653C62.8809 44.5962 57.0914 31.7006 54.0908 21.2544C52.6689 16.3047 51.9637 12.2243 51.9939 9.12816C52.0185 6.67878 52.5252 4.98929 53.3855 4.49338C54.2477 3.99746 55.9683 4.40287 58.1086 5.60588C60.8124 7.12566 64.0059 9.77304 67.5945 13.4745C75.1689 21.2846 83.4788 32.7264 90.9926 45.6974C98.5046 58.6646 104.296 71.5602 107.297 82.0082C108.718 86.9579 109.424 91.0383 109.393 94.1345C109.369 96.5839 108.862 98.2734 108.002 98.7693C107.142 99.2652 105.419 98.8598 103.279 97.6568C101.83 96.8422 100.231 95.6976 98.5122 94.2438C98.3515 95.3563 97.9147 96.3199 97.2359 97.0307C97.2076 97.059 97.1792 97.0892 97.1508 97.1175L97.1527 97.1118Z" fill="#231F20"/>
<path d="M80.6294 67.1365C65.3464 67.1365 50.9653 65.6507 40.1294 62.9543C34.7786 61.6231 30.5546 60.058 27.5767 58.3044C24.1771 56.3019 22.4508 54.0618 22.4508 51.6464C22.4508 49.231 24.1733 46.9909 27.5729 44.9846C30.549 43.2291 34.771 41.6622 40.1219 40.3272C50.9729 37.6195 65.3805 36.1261 80.688 36.1204H80.7561C96.0391 36.1204 110.418 37.6063 121.256 40.3027C126.609 41.6358 130.831 43.1989 133.809 44.9525C137.208 46.955 138.933 49.1951 138.935 51.6106C138.937 54.026 137.212 56.268 133.813 58.2724C130.837 60.0279 126.614 61.5948 121.264 62.9298C110.413 65.6375 96.005 67.1309 80.6975 67.1365H80.6294V67.1365ZM80.758 40.331H80.6899C65.717 40.3347 51.6725 41.7847 41.1466 44.4114C36.191 45.6483 32.3471 47.0606 29.7208 48.6087C27.4708 49.9362 26.6729 51.0732 26.6729 51.6445C26.6729 52.2158 27.4727 53.3529 29.7227 54.6784C32.349 56.2246 36.1948 57.635 41.1504 58.8682C51.663 61.4854 65.6811 62.926 80.6294 62.926H80.6975C95.6704 62.9222 109.715 61.4722 120.241 58.8456C125.196 57.6086 129.04 56.1963 131.667 54.6483C133.917 53.3208 134.715 52.1838 134.715 51.6125C134.715 51.0411 133.915 49.9041 131.665 48.5785C129.038 47.0324 125.195 45.6219 120.237 44.3869C109.724 41.7697 95.7063 40.3291 80.758 40.3291V40.331Z" fill="#7B5EA7"/>
<path d="M80.6975 67.7022H80.6294C65.3029 67.7022 50.8689 66.2107 39.9914 63.503C34.5876 62.1586 30.3126 60.5728 27.2893 58.7909C23.7044 56.6791 21.8855 54.2749 21.8855 51.6464C21.8855 49.0179 23.7006 46.6119 27.2855 44.4981C30.3088 42.7162 34.5819 41.1286 39.9857 39.7785C50.8803 37.0595 65.337 35.5585 80.6899 35.5547H80.758C96.0845 35.5547 110.517 37.0463 121.396 39.754C126.802 41.1003 131.077 42.6861 134.1 44.4661C137.685 46.5779 139.504 48.9821 139.504 51.6106C139.504 54.241 137.687 56.6451 134.104 58.7589C131.08 60.5426 126.807 62.1303 121.404 63.4785C110.509 66.1975 96.0523 67.6966 80.6994 67.7022H80.6975ZM80.688 36.6861C65.424 36.6899 51.0674 38.1776 40.258 40.8759C34.9601 42.1977 30.7891 43.7439 27.8603 45.4711C24.646 47.3661 23.0162 49.444 23.0181 51.6445C23.0181 53.845 24.6498 55.9229 27.8641 57.8161C30.7947 59.5414 34.9676 61.0857 40.2655 62.4037C51.0561 65.0907 65.3918 66.5709 80.6294 66.5709H80.6975C95.9597 66.5671 110.318 65.0794 121.128 62.3811C126.425 61.0593 130.596 59.5131 133.525 57.7859C136.74 55.8909 138.369 53.8129 138.367 51.6125C138.367 49.412 136.736 47.3359 133.521 45.4409C130.593 43.7156 126.42 42.1713 121.12 40.8533C110.328 38.1663 95.9918 36.6861 80.7561 36.6861H80.688V36.6861ZM80.6956 63.4917H80.6275C65.6357 63.4917 51.5666 62.0454 41.0124 59.4169C36.0038 58.1706 32.1069 56.7394 29.4334 55.1649C27.3176 53.9185 26.1038 52.6363 26.1038 51.6445C26.1038 50.6527 27.3158 49.3686 29.4315 48.1222C32.1032 46.5459 35.9981 45.1128 41.0086 43.8627C51.5779 41.2247 65.6716 39.7691 80.6899 39.7653H80.758C95.7498 39.7653 109.819 41.2115 120.373 43.84C125.384 45.0883 129.279 46.5176 131.952 48.0921C134.068 49.3384 135.282 50.6206 135.282 51.6125C135.282 52.6043 134.07 53.8884 131.956 55.1347C129.282 56.7111 125.387 58.1442 120.379 59.3943C109.809 62.0322 95.7158 63.4879 80.6975 63.4917H80.6956ZM80.6899 40.8966C65.7605 40.9004 51.767 42.3448 41.2847 44.9601C36.3819 46.1838 32.5891 47.5754 30.0101 49.0952C27.709 50.4509 27.2401 51.4503 27.2401 51.6426C27.2401 51.835 27.7109 52.8343 30.012 54.1901C32.591 55.7099 36.3857 57.0977 41.2884 58.3195C51.7557 60.9254 65.7265 62.3603 80.6294 62.3603H80.6975C95.625 62.3566 109.62 60.9122 120.103 58.2969C125.005 57.0731 128.798 55.6816 131.377 54.1618C133.676 52.806 134.147 51.8067 134.147 51.6125C134.147 51.4201 133.676 50.4208 131.375 49.0669C128.796 47.5471 125.002 46.1593 120.099 44.9375C109.632 42.3316 95.659 40.8966 80.758 40.8966H80.6899V40.8966Z" fill="#231F20"/>
<path d="M54.3082 102.633C53.3004 102.633 52.391 102.401 51.5874 101.939C49.4887 100.732 48.4053 98.1225 48.3637 94.1854C48.3277 90.7366 49.0784 86.3074 50.5947 81.0183C53.6691 70.293 59.5758 57.1033 67.2258 43.8797C74.8758 30.656 83.3691 18.9559 91.1439 10.9327C94.9765 6.97671 98.4479 4.11249 101.458 2.41734C104.897 0.482724 107.705 0.113148 109.802 1.31993C111.901 2.52671 112.984 5.13637 113.026 9.07349C113.062 12.5204 112.311 16.9515 110.796 22.2406C107.722 32.9658 101.815 46.1556 94.1653 59.3792C86.5153 72.6029 78.0202 84.303 70.2473 92.3262C66.4147 96.2822 62.9452 99.1464 59.9332 100.842C57.8118 102.035 55.9324 102.633 54.3101 102.633H54.3082ZM107.068 4.83844C106.351 4.83844 105.173 5.15899 103.53 6.08294C100.874 7.57821 97.7275 10.1935 94.1767 13.8572C86.6363 21.6391 78.3624 33.0488 70.8807 45.9821C63.3971 58.9173 57.634 71.7695 54.6523 82.1742C53.2475 87.0729 52.5536 91.0987 52.5838 94.1401C52.6103 96.7479 53.2002 98.0056 53.6956 98.2903C54.191 98.5751 55.5788 98.4544 57.8552 97.1722C60.5118 95.6769 63.658 93.0616 67.2088 89.3979C74.7492 81.616 83.0231 70.2063 90.5048 57.273C97.9884 44.3397 103.751 31.4856 106.733 21.0809C108.138 16.1822 108.832 12.1564 108.802 9.11497C108.775 6.50719 108.185 5.2495 107.69 4.96478C107.552 4.88558 107.344 4.83656 107.068 4.83656V4.83844Z" fill="#7B5EA7"/>
<path d="M54.3082 103.199C53.2021 103.199 52.1905 102.94 51.3038 102.429C49.0197 101.115 47.8399 98.3431 47.7964 94.191C47.7605 90.6895 48.5168 86.2037 50.0483 80.8618C53.134 70.0932 59.0597 56.8582 66.7324 43.5949C74.405 30.3335 82.9286 18.592 90.7336 10.5367C94.604 6.54112 98.1189 3.64297 101.176 1.92142C104.803 -0.118791 107.798 -0.488368 110.084 0.825891C112.368 2.14015 113.547 4.91197 113.591 9.06405C113.627 12.5656 112.871 17.0495 111.339 22.3914C108.253 33.16 102.328 46.395 94.655 59.6583C86.9824 72.9197 78.4588 84.6594 70.6538 92.7146C66.7834 96.7083 63.2704 99.6083 60.2111 101.33C58.0122 102.567 56.0269 103.195 54.3082 103.195V103.199ZM107.075 1.1917C105.555 1.1917 103.768 1.76492 101.736 2.90947C98.7731 4.57634 95.3452 7.4085 91.5504 11.3249C83.8078 19.316 75.3447 30.9765 67.7174 44.1606C60.0901 57.3447 54.2023 70.4891 51.1412 81.1729C49.6399 86.4092 48.8968 90.7857 48.9328 94.1797C48.9725 97.9038 49.9613 100.349 51.8729 101.449C53.7826 102.548 56.424 102.167 59.6553 100.349C62.62 98.6806 66.046 95.8485 69.8408 91.934C77.5815 83.9428 86.0464 72.2823 93.6737 59.0983C101.301 45.9142 107.189 32.7697 110.25 22.086C111.751 16.8497 112.494 12.4732 112.458 9.08102C112.421 5.35697 111.432 2.91136 109.518 1.81017C108.802 1.39911 107.987 1.1917 107.075 1.1917V1.1917ZM54.3271 98.988C53.9622 98.988 53.654 98.9201 53.4139 98.7825C52.5517 98.2865 52.0431 96.5971 52.0185 94.1477C51.9863 91.0515 52.6897 86.9711 54.1078 82.0195C57.1027 71.5715 62.8847 58.674 70.3891 45.6992C77.8954 32.7264 86.1977 21.277 93.7683 13.4631C97.3569 9.75983 100.547 7.11057 103.25 5.5889C105.187 4.49903 106.395 4.27087 107.066 4.27087C107.433 4.27087 107.739 4.33875 107.974 4.47451C108.834 4.96854 109.342 6.65803 109.367 9.1093C109.399 12.2054 108.696 16.2859 107.278 21.2374C104.283 31.6855 98.5008 44.5849 90.9964 57.5577C83.4901 70.5306 75.1878 81.9781 67.6172 89.7938C64.0305 93.4971 60.8389 96.1464 58.1351 97.6681C56.5941 98.5354 55.2687 98.9899 54.3271 98.9899V98.988ZM107.068 5.40411C106.714 5.40411 105.689 5.51913 103.81 6.57695C101.201 8.04583 98.0981 10.6272 94.587 14.2513C87.0788 22.0011 78.8351 33.3712 71.3742 46.2668C63.9132 59.1624 58.1691 71.9712 55.2006 82.3325C53.8128 87.1785 53.1227 91.1496 53.1548 94.1364C53.1832 96.8007 53.8147 97.7058 53.983 97.8038C54.1513 97.9 55.2536 97.9924 57.5792 96.6838C60.1884 95.2149 63.2912 92.6335 66.8023 89.0094C74.3105 81.2596 82.5542 69.8895 90.0151 56.9939C97.476 44.0984 103.22 31.2895 106.189 20.9282C107.578 16.0822 108.267 12.1112 108.234 9.12439C108.206 6.46004 107.575 5.55496 107.406 5.45879C107.403 5.45691 107.314 5.406 107.068 5.406V5.40411Z" fill="#231F20"/>
<path d="M163.191 127.153C118.473 135.929 74.2538 152.38 32.5153 175.607C24.3435 180.155 14.0899 175.519 12.1008 166.4L12.0366 166.102C10.6544 159.766 13.8422 153.318 19.7225 150.555C65.683 128.961 113.372 115.172 160.574 109.9C166.405 109.249 171.197 114.422 170.066 120.163L170.032 120.337C169.353 123.784 166.649 126.474 163.191 127.153V127.153Z" fill="#231F20"/>
<path d="M25.7483 177.945C23.7252 177.945 21.6945 177.515 19.7716 176.65C15.5326 174.742 12.5338 171.05 11.5469 166.519L11.4826 166.221C10.7868 163.032 11.2008 159.664 12.6473 156.738C14.0937 153.812 16.5214 151.434 19.4805 150.042C42.3964 139.276 65.9628 130.366 89.5254 123.563C113.122 116.748 137.006 111.963 160.512 109.338C163.479 109.006 166.337 110.071 168.357 112.259C170.37 114.44 171.197 117.361 170.624 120.273L170.59 120.446C169.864 124.132 167.003 126.983 163.303 127.709C118.666 136.47 74.7567 152.752 32.7933 176.103C30.5887 177.331 28.1742 177.949 25.7502 177.949L25.7483 177.945ZM161.571 110.409C161.263 110.409 160.951 110.426 160.639 110.462C137.195 113.081 113.375 117.853 89.8412 124.649C66.3372 131.435 42.8275 140.324 19.9645 151.066C14.2903 153.732 11.2576 159.866 12.5906 165.981L12.6548 166.279C13.5662 170.456 16.3305 173.861 20.2387 175.62C24.1355 177.374 28.5088 177.189 32.2393 175.115C74.3029 151.707 118.331 135.382 163.083 126.599C166.33 125.961 168.839 123.461 169.476 120.227L169.51 120.054C170.013 117.501 169.289 114.938 167.523 113.024C165.963 111.335 163.834 110.409 161.573 110.409H161.571Z" fill="#231F20"/>
<path d="M163.191 127.153C118.473 135.929 74.2538 152.38 32.5153 175.607C24.3435 180.155 14.0899 175.519 12.1008 166.4L12.0366 166.102C10.6544 159.766 13.8422 153.318 19.7225 150.555C65.683 128.961 113.372 115.172 160.574 109.9C166.405 109.249 171.197 114.422 170.066 120.163L170.032 120.337C169.353 123.784 166.649 126.474 163.191 127.153V127.153Z" fill="#FCBA2B"/>
<path d="M25.7483 177.945C23.7252 177.945 21.6945 177.515 19.7716 176.65C15.5326 174.742 12.5338 171.05 11.5469 166.519L11.4826 166.221C10.7868 163.032 11.2008 159.664 12.6473 156.738C14.0937 153.812 16.5214 151.434 19.4805 150.042C42.3964 139.276 65.9628 130.366 89.5254 123.563C113.122 116.748 137.006 111.963 160.512 109.338C163.479 109.006 166.337 110.071 168.357 112.259C170.37 114.44 171.197 117.361 170.624 120.273L170.59 120.446C169.864 124.132 167.003 126.983 163.303 127.709C118.666 136.47 74.7567 152.752 32.7933 176.103C30.5887 177.331 28.1742 177.949 25.7502 177.949L25.7483 177.945ZM161.571 110.409C161.263 110.409 160.951 110.426 160.639 110.462C137.195 113.081 113.375 117.853 89.8412 124.649C66.3372 131.435 42.8275 140.324 19.9645 151.066C14.2903 153.732 11.2576 159.866 12.5906 165.981L12.6548 166.279C13.5662 170.456 16.3305 173.861 20.2387 175.62C24.1355 177.374 28.5088 177.189 32.2393 175.115C74.3029 151.707 118.331 135.382 163.083 126.599C166.33 125.961 168.839 123.461 169.476 120.227L169.51 120.054C170.013 117.501 169.289 114.938 167.523 113.024C165.963 111.335 163.834 110.409 161.573 110.409H161.571Z" fill="#231F20"/>
<path d="M56.2651 155.644C56.0647 155.735 55.7603 155.661 55.6714 155.49C54.6674 153.738 53.6502 151.975 52.6179 150.201C52.8542 152.23 53.0886 154.258 53.325 156.287C53.3685 156.657 53.1189 157.081 52.8031 157.228C52.6424 157.302 52.4817 157.377 52.321 157.451C52.0052 157.598 51.6876 157.432 51.6422 157.062C51.1941 153.344 50.746 149.627 50.2979 145.909C50.2525 145.538 50.5097 145.119 50.8368 144.983C50.9748 144.927 51.1128 144.868 51.2489 144.812C51.472 144.719 51.7727 144.808 51.8653 144.981C52.909 146.767 53.9395 148.541 54.9548 150.304C54.7317 148.287 54.5086 146.269 54.2855 144.254C54.2439 143.888 54.4878 143.48 54.8338 143.341C54.9945 143.275 55.1552 143.211 55.316 143.145C55.6601 143.005 55.9683 143.186 56.0061 143.552C56.3956 147.216 56.7851 150.88 57.1765 154.543C57.2162 154.909 56.9798 155.32 56.6471 155.471C56.5185 155.529 56.3918 155.586 56.2632 155.644H56.2651Z" fill="#231F20"/>
<path d="M63.1645 140.052C63.5105 139.92 63.813 140.1 63.8433 140.458C63.8565 140.618 63.8716 140.78 63.8849 140.941C63.9151 141.299 63.6655 141.691 63.3214 141.825C62.4422 142.168 61.5649 142.513 60.6876 142.862C60.7954 143.991 60.9031 145.123 61.0109 146.252C61.7275 145.958 62.4422 145.666 63.1588 145.375C63.4992 145.238 63.7979 145.415 63.83 145.771C63.8452 145.932 63.8584 146.094 63.8735 146.254C63.9057 146.612 63.658 147.01 63.3195 147.15C62.6067 147.444 61.8939 147.738 61.1811 148.036C61.2889 149.173 61.3966 150.308 61.5063 151.445C62.3628 151.076 63.2212 150.71 64.0796 150.346C64.4162 150.204 64.7111 150.376 64.7414 150.732C64.7546 150.893 64.7697 151.055 64.783 151.215C64.8132 151.572 64.5712 151.973 64.2366 152.118C63.0303 152.637 61.8277 153.163 60.6233 153.693C60.2887 153.84 59.9937 153.668 59.9578 153.306C59.5966 149.671 59.2355 146.034 58.8744 142.398C58.8384 142.036 59.0861 141.636 59.4321 141.501C60.6763 141.01 61.9223 140.526 63.1683 140.049L63.1645 140.052Z" fill="#231F20"/>
<path d="M72.7563 142.406C72.8981 140.556 73.0418 138.712 73.1912 136.871C73.2063 136.562 73.488 136.23 73.783 136.127C73.9513 136.066 74.1195 136.008 74.2878 135.947C74.6698 135.812 74.9855 136.036 74.9553 136.436C74.6074 140.117 74.2765 143.814 73.9607 147.529C73.9286 147.829 73.6733 148.181 73.3878 148.296C73.2593 148.349 73.1307 148.402 73.0002 148.453C72.7317 148.562 72.4462 148.445 72.3763 148.185C71.9527 146.446 71.5235 144.702 71.0905 142.954C70.9128 144.938 70.7408 146.927 70.5744 148.92C70.5441 149.222 70.2927 149.561 70.0242 149.675C69.9013 149.726 69.7784 149.776 69.6555 149.827C69.37 149.946 69.0996 149.805 69.0277 149.543C68.2071 146.22 67.3714 142.883 66.5187 139.53C66.4355 139.159 66.6681 138.725 67.067 138.576C67.2353 138.514 67.4017 138.452 67.57 138.389C67.8649 138.28 68.1599 138.406 68.2355 138.687C68.6364 140.373 69.0353 142.053 69.4286 143.729C69.5912 141.829 69.7595 139.932 69.9315 138.041C69.9637 137.741 70.2246 137.411 70.5025 137.309C70.6292 137.262 70.7578 137.217 70.8845 137.169C71.1624 137.068 71.4555 137.196 71.5273 137.456C71.9414 139.11 72.3536 140.76 72.7601 142.406H72.7563Z" fill="#231F20"/>
<path d="M78.0013 142.785C77.9824 142.441 78.2414 142.062 78.5836 141.936C78.7424 141.876 78.9032 141.817 79.062 141.757C79.3872 141.636 79.6897 141.802 79.7067 142.144C79.7105 142.217 79.7143 142.293 79.7181 142.366C79.7578 143.186 79.9298 143.522 80.1775 143.637C80.3723 143.754 80.6634 143.678 80.9017 143.588C81.6145 143.318 81.9908 142.866 81.9529 141.966C81.9189 141.169 81.1059 140.827 80.2361 140.486V140.503C79.0658 140.03 77.8311 139.536 77.7403 137.833C77.6345 135.889 78.6025 134.413 80.4498 133.789C82.333 133.153 83.3729 133.992 83.4542 136.136C83.458 136.215 83.4599 136.294 83.4637 136.372C83.4769 136.709 83.2103 137.075 82.8662 137.196C82.7055 137.252 82.5447 137.309 82.384 137.365C82.0399 137.486 81.7506 137.313 81.7374 136.973C81.7336 136.894 81.7298 136.815 81.7279 136.736C81.6788 135.616 81.2931 135.231 80.5292 135.493C79.8013 135.744 79.4212 136.277 79.4647 137.167C79.5082 138.041 80.3855 138.404 81.2553 138.749L81.2382 138.755C82.4124 139.217 83.5941 139.668 83.6565 141.304C83.7284 143.196 82.7697 144.584 80.9792 145.274C79.1225 145.992 78.1374 145.26 78.0145 143.005C78.0107 142.932 78.0069 142.856 78.0031 142.783L78.0013 142.785Z" fill="#231F20"/>
<path d="M91.1912 140.901C91.1968 141.231 90.9303 141.591 90.5918 141.714C89.3874 142.147 88.183 142.585 86.9786 143.03C86.6401 143.154 86.3603 142.988 86.3489 142.653C86.2393 139.291 86.1315 135.929 86.0218 132.567C86.0105 132.231 86.2809 131.873 86.6307 131.76C86.7989 131.705 86.9691 131.65 87.1374 131.596C87.4683 131.488 87.7557 131.665 87.7651 131.999C87.8483 134.993 87.9334 137.986 88.0166 140.98C88.8618 140.677 89.7088 140.375 90.5559 140.077C90.8962 139.956 91.1742 140.126 91.1817 140.454C91.1855 140.603 91.1874 140.75 91.1912 140.899V140.901Z" fill="#231F20"/>
<path d="M98.0149 128.247C98.3647 128.143 98.6464 128.318 98.6464 128.641C98.6464 128.786 98.6464 128.931 98.6464 129.075C98.6464 129.397 98.3685 129.736 98.0187 129.842C97.13 130.11 96.2414 130.379 95.3527 130.653C95.3622 131.671 95.3716 132.691 95.3811 133.709C96.1071 133.477 96.8332 133.247 97.5592 133.017C97.9052 132.908 98.1832 133.08 98.1832 133.402C98.1832 133.547 98.1832 133.692 98.1832 133.838C98.1832 134.16 97.909 134.505 97.5649 134.616C96.8408 134.848 96.1185 135.084 95.3943 135.32C95.4038 136.343 95.4132 137.369 95.4227 138.393C96.2943 138.097 97.166 137.805 98.0376 137.514C98.3798 137.401 98.654 137.567 98.654 137.89C98.654 138.035 98.654 138.18 98.654 138.323C98.654 138.646 98.3817 138.995 98.0414 139.11C96.8162 139.526 95.591 139.949 94.3658 140.377C94.0254 140.496 93.7494 140.33 93.7456 140.002C93.7021 136.721 93.6567 133.44 93.6132 130.157C93.6094 129.829 93.8855 129.482 94.2353 129.376C95.4945 128.993 96.7538 128.616 98.0149 128.247V128.247Z" fill="#231F20"/>
<path d="M101.341 127.839C101.343 127.521 101.624 127.185 101.974 127.087C103.504 126.653 105.035 126.227 106.567 125.811C106.918 125.714 107.193 125.89 107.187 126.201C107.183 126.346 107.181 126.493 107.178 126.638C107.172 126.951 106.886 127.278 106.537 127.376C106.058 127.509 105.582 127.643 105.103 127.777C105.06 130.598 105.016 133.419 104.975 136.24C104.969 136.555 104.693 136.894 104.351 137.003C104.198 137.052 104.043 137.103 103.889 137.152C103.549 137.264 103.279 137.1 103.281 136.783C103.311 133.945 103.343 131.107 103.373 128.269C102.903 128.405 102.43 128.541 101.959 128.679C101.609 128.78 101.333 128.607 101.333 128.288C101.333 128.139 101.333 127.99 101.335 127.841L101.341 127.839Z" fill="#231F20"/>
<path d="M109.927 125.462C109.934 125.152 110.224 124.83 110.573 124.74C112.107 124.338 113.64 123.944 115.174 123.561C115.525 123.472 115.796 123.646 115.782 123.948L115.763 124.372C115.75 124.675 115.461 124.988 115.111 125.079C114.633 125.202 114.154 125.326 113.676 125.45C113.574 128.185 113.474 130.921 113.372 133.655C113.36 133.96 113.077 134.286 112.734 134.388C112.579 134.435 112.426 134.481 112.273 134.528C111.931 134.631 111.664 134.469 111.676 134.162C111.766 131.409 111.855 128.658 111.946 125.905C111.473 126.029 111.003 126.156 110.53 126.284C110.18 126.378 109.908 126.207 109.915 125.897C109.919 125.752 109.923 125.609 109.927 125.464V125.462Z" fill="#231F20"/>
<path d="M122.997 121.691C123.349 121.609 123.616 121.779 123.597 122.073C123.589 122.205 123.58 122.337 123.572 122.469C123.553 122.763 123.258 123.063 122.909 123.148C122.014 123.361 121.122 123.576 120.228 123.793C120.176 124.724 120.127 125.658 120.076 126.589C120.806 126.403 121.538 126.216 122.27 126.033C122.617 125.946 122.882 126.112 122.863 126.406C122.856 126.538 122.846 126.67 122.839 126.804C122.82 127.098 122.529 127.406 122.183 127.494C121.455 127.683 120.727 127.872 119.997 128.064C119.946 129.001 119.895 129.938 119.846 130.875C120.723 130.632 121.602 130.393 122.481 130.157C122.825 130.064 123.086 130.225 123.069 130.519C123.062 130.651 123.052 130.783 123.045 130.915C123.026 131.209 122.737 131.518 122.394 131.614C121.158 131.956 119.923 132.303 118.688 132.655C118.346 132.753 118.083 132.593 118.099 132.293C118.248 129.288 118.395 126.282 118.545 123.276C118.56 122.977 118.853 122.669 119.205 122.584C120.47 122.281 121.736 121.981 123.001 121.689L122.997 121.691Z" fill="#231F20"/>
<path d="M131.251 128.756C131.226 129.039 130.931 129.337 130.587 129.425C130.426 129.467 130.266 129.506 130.105 129.548C129.761 129.636 129.504 129.478 129.526 129.191C129.591 128.396 129.653 127.6 129.717 126.802C129.774 126.088 129.32 125.803 128.469 126.009C128.208 126.071 127.949 126.135 127.688 126.199C127.601 127.377 127.513 128.556 127.426 129.734C127.405 130.023 127.112 130.327 126.785 130.413C126.624 130.457 126.463 130.498 126.303 130.542C125.958 130.634 125.699 130.474 125.72 130.183C125.924 127.268 126.127 124.353 126.331 121.438C126.352 121.147 126.649 120.851 127 120.774C127.74 120.612 128.479 120.45 129.216 120.291C131.381 119.829 132.064 120.557 131.901 122.456C131.825 123.337 131.574 124.087 130.997 124.655C130.941 124.709 130.905 124.747 130.848 124.802C131.315 125.126 131.51 125.65 131.447 126.389C131.381 127.179 131.313 127.97 131.247 128.762L131.251 128.756ZM127.798 124.741C128.059 124.679 128.32 124.617 128.583 124.557C129.558 124.327 130.095 123.81 130.175 122.839C130.252 121.868 130.022 121.525 129.11 121.726C128.742 121.807 128.373 121.89 128.006 121.973C127.938 122.897 127.868 123.819 127.8 124.743L127.798 124.741Z" fill="#231F20"/>
<path d="M15.8918 144.804C14.5134 145.436 13.3053 145.345 12.254 144.514C11.2027 143.684 10.5126 142.528 10.1893 141.052C7.11114 126.942 4.03298 112.836 0.954833 98.7315C0.467018 96.1257 0.582354 93.7781 1.31975 91.7096C2.05714 89.6411 3.03656 88.4079 4.23908 88.0006C9.35735 86.4714 14.4756 85.0271 19.5882 83.6694C23.0616 82.9812 26.2796 83.7939 29.1763 86.0245C32.0729 88.259 34.0847 90.7951 35.2664 93.6499C36.4481 96.5047 37.229 99.5989 37.6355 102.95C38.2878 108.301 37.5221 112.6 35.4044 115.936C38.3408 118.658 40.3431 122.728 41.4889 128.173C41.7555 129.533 41.5645 130.922 40.9273 132.359C40.2901 133.798 39.3145 134.782 37.991 135.314C36.3952 135.953 34.8013 136.602 33.2092 137.26C31.8195 137.835 30.6321 137.718 29.6338 136.894C28.6355 136.072 28.004 134.946 27.7525 133.519C26.5897 129.22 25.5271 126.389 24.5685 125.036C23.8311 125.746 23.0975 126.463 22.3658 127.183C22.8574 129.833 23.3471 132.482 23.8387 135.131C24.1733 136.54 24.0447 137.995 23.4681 139.509C22.8914 141.024 21.9498 142.076 20.6357 142.662C19.0513 143.369 17.4687 144.084 15.888 144.808L15.8918 144.804ZM23.245 108.571C23.088 107.681 22.9311 106.789 22.7742 105.899C22.0878 102.45 21.2237 100.229 20.1706 99.2331C19.4181 98.807 18.4273 98.8258 17.2002 99.3048C18.0908 104.107 18.9813 108.91 19.8718 113.713C20.0534 113.648 20.2349 113.584 20.4164 113.52C22.5113 111.88 23.4605 110.243 23.245 108.569V108.571Z" fill="#12B5E5"/>
<path d="M14.1826 145.787C13.3601 145.787 12.5981 145.509 11.9004 144.959C10.7471 144.048 9.98319 142.773 9.63529 141.174C6.55714 127.064 3.47899 112.958 0.400842 98.8541C-0.109663 96.1276 0.0207996 93.6669 0.786556 91.5229C1.57878 89.2998 2.6792 87.9346 4.05756 87.4689L4.07836 87.4633C9.17395 85.9416 14.3433 84.4821 19.4445 83.1264L19.4805 83.1188C23.0956 82.4023 26.4744 83.232 29.5242 85.5814C32.4643 87.8498 34.5725 90.4915 35.792 93.4368C36.9756 96.2973 37.7868 99.4764 38.1989 102.886C38.8342 108.084 38.1366 112.442 36.1267 115.845C38.9685 118.64 40.9046 122.641 42.0429 128.06C42.3321 129.525 42.1298 131.047 41.4454 132.591C40.7477 134.164 39.6567 135.257 38.2027 135.842C36.6069 136.481 35.0017 137.135 33.4267 137.786C31.8328 138.446 30.4355 138.293 29.2727 137.333C28.1742 136.43 27.4765 135.19 27.2004 133.645C26.2078 129.98 25.2908 127.391 24.4626 125.931C23.9672 126.412 23.47 126.897 22.9803 127.377L24.3964 135.016C24.75 136.517 24.6158 138.095 24.0013 139.711C23.3697 141.367 22.3166 142.534 20.8702 143.179C19.2782 143.89 17.6824 144.61 16.1282 145.323C15.4494 145.634 14.7989 145.79 14.1826 145.79V145.787ZM4.41303 88.5399C3.38445 88.8944 2.52416 90.0239 1.85483 91.9001C1.15714 93.8554 1.0437 96.1181 1.51261 98.6297C4.58698 112.717 7.66513 126.825 10.7433 140.933C11.0345 142.27 11.6622 143.326 12.6057 144.071C13.4887 144.77 14.4567 144.84 15.6536 144.291C17.2097 143.577 18.8092 142.854 20.405 142.144C21.583 141.617 22.4111 140.69 22.9387 139.308C23.4813 137.884 23.5947 136.56 23.2866 135.261L23.2809 135.233L21.7532 126.991L21.9668 126.78C22.6947 126.063 23.4378 125.339 24.1733 124.628L24.6498 124.168L25.0317 124.707C26.0395 126.133 27.1097 128.967 28.2989 133.37L28.3103 133.419C28.5353 134.701 29.1025 135.723 29.9931 136.455C30.8307 137.145 31.7817 137.233 32.9899 136.734C34.5687 136.081 36.1777 135.425 37.7773 134.786C38.9647 134.309 39.825 133.44 40.4074 132.127C41.0048 130.781 41.175 129.521 40.9311 128.279C39.8004 122.892 37.8643 118.987 35.0187 116.347L34.6746 116.026L34.9261 115.63C36.9775 112.396 37.6998 108.152 37.0739 103.016C36.6731 99.7083 35.8884 96.6291 34.7445 93.863C33.6006 91.1024 31.6116 88.6153 28.8303 86.4695C26.0565 84.3332 22.9897 83.5752 19.7187 84.2181C14.6382 85.5682 9.48971 87.0201 4.41492 88.538L4.41303 88.5399ZM19.4332 114.469L16.5555 98.9484L16.9922 98.7787C18.3782 98.2394 19.541 98.2262 20.4504 98.7429L20.5109 98.7768L20.5601 98.8239C21.7059 99.91 22.6116 102.188 23.3282 105.789L23.8046 108.499C24.0447 110.358 23.0218 112.198 20.7643 113.967L20.6905 114.026L19.4313 114.469H19.4332ZM17.845 99.68L20.2954 112.894C22.0765 111.439 22.8574 110.051 22.6834 108.657L22.2145 105.999C21.5679 102.752 20.7662 100.628 19.8303 99.6951C19.3254 99.4368 18.6599 99.4311 17.845 99.68Z" fill="#231F20"/>
<path d="M38.0288 87.9328C37.7773 85.5117 38.0874 83.3621 38.9779 81.5067C39.8685 79.6512 40.9216 78.5821 42.1223 78.2804C51.1053 76.3552 60.0637 74.6959 68.988 73.3081C69.958 73.2383 70.7691 73.5476 71.4158 74.2302C72.0624 74.9127 72.4141 75.7481 72.4765 76.738C72.5748 78.3238 72.675 79.9096 72.7733 81.4935C72.8357 82.4853 72.5975 83.4168 72.0643 84.2992C71.5311 85.1798 70.7994 85.753 69.8691 86.0113C64.505 87.0428 59.1315 88.1722 53.7523 89.3997C54.0038 91.8077 54.2534 94.2174 54.5048 96.6253C58.7193 95.5751 62.93 94.587 67.1389 93.6593C68.0672 93.5367 68.8462 93.8064 69.4739 94.4626C70.0998 95.1188 70.4458 95.9446 70.5158 96.944C70.5706 97.7435 70.6273 98.543 70.6821 99.3425C70.7521 100.342 70.5309 101.296 70.0279 102.214C69.5231 103.131 68.8254 103.745 67.933 104.053C63.8282 105.09 59.7233 106.185 55.6204 107.341C55.8719 109.751 56.1214 112.159 56.3729 114.569C61.4269 113.03 66.4866 111.584 71.5481 110.226C72.4387 110.07 73.1836 110.307 73.7811 110.937C74.3786 111.565 74.7038 112.374 74.7662 113.364C74.8645 114.95 74.9647 116.535 75.063 118.121C75.1254 119.113 74.9118 120.073 74.4277 121.008C73.9437 121.943 73.2781 122.586 72.4273 122.933C64.5107 125.401 56.6111 128.096 48.7399 131.015C47.6773 131.366 46.5618 130.926 45.3725 129.684C44.1832 128.441 43.3815 126.627 42.9845 124.246C41.3338 112.14 39.6832 100.036 38.0326 87.9328H38.0288Z" fill="#12B5E5"/>
<path d="M48.0214 131.697C47.0193 131.697 45.9926 131.154 44.9565 130.074C43.6859 128.746 42.8332 126.817 42.4191 124.338L37.4634 87.9912C37.2006 85.4607 37.5372 83.1962 38.4655 81.2615C39.4242 79.2628 40.6078 78.0749 41.9824 77.7298L42.0013 77.726C50.9445 75.8084 59.9956 74.134 68.8973 72.7481L68.9445 72.7424C70.0884 72.6613 71.0584 73.0309 71.8261 73.8398C72.5616 74.6167 72.97 75.5802 73.0399 76.7022L73.3368 81.4576C73.4048 82.5551 73.1401 83.6091 72.5464 84.5896C71.9376 85.5965 71.0868 86.2565 70.0166 86.5544L69.9712 86.5657C64.8 87.5594 59.5513 88.6606 54.363 89.8391L54.9964 95.9183C58.9878 94.9283 63.0265 93.9836 67.0122 93.1049L67.0595 93.0974C68.1731 92.9503 69.1223 93.2784 69.8786 94.0723C70.5933 94.8208 70.996 95.7749 71.0754 96.9044L71.2418 99.3029C71.3174 100.402 71.0754 101.473 70.5195 102.486C69.9466 103.529 69.1355 104.236 68.1126 104.588L68.0672 104.601C64.1382 105.593 60.1582 106.655 56.2292 107.756L56.8607 113.826C61.6859 112.366 66.5716 110.971 71.395 109.677L71.4441 109.666C72.5143 109.478 73.4634 109.781 74.1876 110.545C74.8739 111.267 75.2578 112.202 75.3277 113.326L75.6246 118.083C75.6926 119.168 75.4582 120.239 74.9288 121.264C74.3824 122.32 73.6128 123.058 72.6391 123.454L72.5937 123.471C64.7168 125.926 56.7567 128.641 48.9347 131.543L48.9158 131.55C48.6208 131.646 48.3239 131.695 48.0233 131.695L48.0214 131.697ZM38.5922 87.8649L43.5422 124.168C43.9147 126.403 44.6691 128.132 45.779 129.291C46.8038 130.362 47.7095 130.751 48.5489 130.479C56.3786 127.575 64.3462 124.858 72.2307 122.4C72.9473 122.102 73.4994 121.56 73.9191 120.748C74.3597 119.894 74.5469 119.047 74.492 118.155L74.1952 113.398C74.1403 112.534 73.87 111.857 73.3632 111.324C72.9 110.835 72.3592 110.662 71.6653 110.777C66.6435 112.123 61.5517 113.581 56.5336 115.108L55.8756 115.308L55.004 106.924L55.4634 106.794C59.5437 105.646 63.6826 104.541 67.7666 103.508C68.5153 103.244 69.092 102.731 69.5269 101.939C69.9826 101.109 70.1754 100.272 70.113 99.3783L69.9466 96.9798C69.8861 96.1087 69.5968 95.411 69.0599 94.8491C68.5645 94.3306 67.967 94.1232 67.2334 94.2137C63.0548 95.1338 58.8176 96.1294 54.6391 97.1703L54.0057 97.3287L53.134 88.9566L53.6237 88.8454C58.9765 87.6235 64.3973 86.4827 69.7349 85.457C70.5176 85.2326 71.1189 84.7574 71.5765 84.0032C72.0548 83.2131 72.259 82.4023 72.2061 81.5255L71.9092 76.7701C71.8544 75.9065 71.5595 75.2012 71.0036 74.6148C70.4798 74.0605 69.8408 73.8172 69.0504 73.8662C60.179 75.2484 51.1639 76.9171 42.2508 78.8272C41.2223 79.0893 40.292 80.0717 39.4884 81.748C38.6527 83.4884 38.3521 85.5456 38.5903 87.863L38.5922 87.8649Z" fill="#231F20"/>
<path d="M91.0305 106.464C91.0248 108.516 91.021 110.569 91.0172 112.623C91.0456 113.833 90.6637 115.029 89.879 116.228C89.0943 117.427 88.0374 118.214 86.6968 118.581C85.0821 119.026 83.4674 119.481 81.8546 119.944C80.446 120.35 79.3153 120.169 78.4513 119.383C77.5872 118.598 77.1485 117.563 77.1466 116.283C77.0389 106.838 76.9595 97.4267 76.9084 88.0497C77.2601 82.0403 78.5477 77.6921 80.7769 75.0447C83.0023 72.3936 86.2204 70.8493 90.363 70.4081C91.5523 70.2817 92.7397 70.1592 93.9271 70.0404C98.0641 69.6331 101.301 70.4835 103.596 72.4596C105.896 74.4432 107.325 78.0862 107.902 83.3866C108.21 91.8341 108.493 100.246 108.751 108.623C108.798 109.753 108.405 110.863 107.578 111.972C106.752 113.083 105.637 113.801 104.228 114.129C102.611 114.505 100.995 114.891 99.3781 115.285C98.0376 115.613 96.9599 115.404 96.1374 114.635C95.3149 113.867 94.8914 112.883 94.8744 111.687C94.7931 109.683 94.7099 107.677 94.6286 105.671C93.4279 105.931 92.2292 106.195 91.0286 106.464H91.0305ZM91.4256 87.6311C91.3405 90.5556 91.2574 93.4858 91.1779 96.4179C92.1536 96.2332 93.1292 96.0521 94.1048 95.873C93.9158 93.0182 93.7229 90.1615 93.5263 87.2992C93.3901 85.819 93.2767 84.6424 93.1878 83.7713C93.0989 82.902 92.8834 82.359 92.5431 82.1421C92.4315 82.1572 92.32 82.1742 92.2065 82.1893C91.8756 82.5004 91.6828 83.1038 91.6261 83.9994C91.5693 84.8951 91.5031 86.1056 91.4237 87.6311H91.4256Z" fill="#12B5E5"/>
<path d="M80.4971 120.719C79.5536 120.719 78.7405 120.412 78.0674 119.799C77.0805 118.904 76.5794 117.721 76.5794 116.281C76.4716 106.896 76.3922 97.3947 76.3412 88.0516V88.0157C76.7023 81.8913 78.0466 77.4036 80.342 74.6789C82.6506 71.9297 86.0029 70.3025 90.3025 69.8424C91.4937 69.7142 92.6943 69.5916 93.8704 69.4747C98.117 69.058 101.513 69.9159 103.967 72.0278C106.361 74.0925 107.875 77.892 108.465 83.3225L108.469 83.3621C108.775 91.7549 109.061 100.248 109.318 108.603C109.371 109.843 108.938 111.092 108.034 112.306C107.128 113.522 105.89 114.32 104.357 114.678C102.747 115.051 101.118 115.44 99.5124 115.832C97.9752 116.207 96.7103 115.943 95.7479 115.044C94.8101 114.171 94.326 113.043 94.3053 111.691C94.2334 109.924 94.1597 108.144 94.0878 106.363C93.2578 106.544 92.4221 106.728 91.5939 106.913C91.5882 108.814 91.5845 110.716 91.5807 112.619C91.6109 113.916 91.1969 115.236 90.3498 116.532C89.4895 117.846 88.3097 118.717 86.8443 119.122C85.2391 119.565 83.6111 120.024 82.0078 120.484C81.4727 120.638 80.966 120.716 80.4952 120.716L80.4971 120.719ZM77.4756 88.0648C77.5267 97.4003 77.6061 106.892 77.7139 116.275C77.7139 117.405 78.0807 118.281 78.8313 118.964C79.5403 119.609 80.4763 119.752 81.6958 119.401C83.3029 118.939 84.9347 118.481 86.5437 118.036C87.7519 117.703 88.6859 117.011 89.4006 115.919C90.1305 114.802 90.4727 113.73 90.4462 112.636C90.45 110.567 90.4538 108.514 90.4595 106.462V106.012L90.9019 105.912C92.0968 105.644 93.3088 105.376 94.5057 105.118L95.1655 104.975L95.1939 105.646C95.2771 107.652 95.3584 109.659 95.4397 111.663C95.4548 112.723 95.8103 113.554 96.5231 114.22C97.1962 114.85 98.0849 115.017 99.242 114.735C100.851 114.342 102.485 113.952 104.097 113.577C105.381 113.279 106.37 112.642 107.123 111.633C107.879 110.618 108.225 109.642 108.183 108.646C107.926 100.293 107.641 91.8096 107.334 83.4262C106.775 78.3012 105.391 74.7544 103.224 72.8857C101.016 70.9851 97.9053 70.2157 93.98 70.6023C92.8078 70.7192 91.609 70.8418 90.4216 70.9681C86.4227 71.3942 83.3237 72.8876 81.2099 75.4068C79.0771 77.9391 77.8197 82.1968 77.4737 88.0648H77.4756ZM90.5899 97.1062L90.6088 96.4047C90.6882 93.4708 90.7714 90.5424 90.8565 87.616V87.6028C90.9359 86.0849 91.0021 84.8611 91.0588 83.9655C91.125 82.9114 91.3727 82.1968 91.817 81.7801L91.9475 81.6575L92.6697 81.5557L92.8456 81.6669C93.3447 81.9837 93.6416 82.655 93.7513 83.7166C93.8439 84.6198 93.9592 85.8096 94.0897 87.2521C94.2863 90.1276 94.4792 92.9843 94.6683 95.8391L94.7023 96.3425L94.205 96.433C93.2313 96.6103 92.2576 96.7913 91.2819 96.9761L90.5899 97.1062V97.1062ZM91.9891 87.6556C91.9116 90.3444 91.834 93.039 91.7603 95.7335C92.3408 95.6241 92.9212 95.5166 93.5017 95.411C93.3221 92.7241 93.1405 90.0352 92.9571 87.3407C92.8267 85.9171 92.7132 84.731 92.6206 83.8316C92.5714 83.3508 92.4882 83.0585 92.4126 82.8813C92.3181 83.0981 92.2254 83.4545 92.1895 84.0353C92.1328 84.9253 92.0666 86.1433 91.9891 87.6537V87.6556Z" fill="#231F20"/>
<path d="M110.745 87.1936C110.885 84.4576 111.42 81.6519 112.371 78.8065C113.321 75.963 114.909 73.5306 117.146 71.5583C119.38 69.5841 122.184 68.481 125.514 68.234C127.891 68.1774 130.264 68.1416 132.631 68.1265C134.955 68.2095 136.947 68.6073 138.608 69.2899C140.266 69.9744 141.508 70.9341 142.334 72.1579C143.161 73.3835 143.55 75.0636 143.516 77.2037C143.406 78.2766 143.299 79.3477 143.189 80.4206C142.79 82.1911 141.699 83.1735 139.912 83.3809C137.14 83.5054 134.365 83.6562 131.583 83.8373C129.776 83.8259 128.823 82.9039 128.726 81.0485C128.836 79.9473 128.77 79.2873 128.528 79.0667C127.966 78.6651 127.414 78.6934 126.872 79.1591C126.386 79.8888 126.015 80.8938 125.756 82.1685C125.497 83.4432 125.295 84.7273 125.147 86.0132C125.024 88.1025 124.901 90.1936 124.779 92.2828C124.775 93.5556 124.824 94.8133 124.928 96.054C125.03 97.2947 125.272 98.2394 125.652 98.8862C126.119 99.2558 126.647 99.1841 127.238 98.6769C127.499 98.411 127.651 97.7322 127.688 96.6367C128.023 94.7435 129.09 93.6348 130.88 93.3218C133.605 93.0427 136.325 92.7919 139.044 92.5694C140.772 92.5562 141.654 93.433 141.686 95.1772C141.576 96.2501 141.468 97.3211 141.359 98.394C140.963 100.557 140.264 102.295 139.26 103.63C138.256 104.965 136.932 106.083 135.289 106.996C133.644 107.909 131.757 108.595 129.619 109.051C127.452 109.415 125.285 109.796 123.118 110.194C120.101 110.583 117.649 110.077 115.726 108.595C113.805 107.117 112.46 105.061 111.71 102.437C110.959 99.8139 110.57 97.1288 110.566 94.4117C110.624 92.0038 110.685 89.5959 110.743 87.188L110.745 87.1936Z" fill="#12B5E5"/>
<path d="M121.226 110.894C118.906 110.894 116.979 110.285 115.378 109.05C113.36 107.498 111.944 105.327 111.163 102.599C110.394 99.9119 110.002 97.1609 109.999 94.4192L110.178 87.1653C110.322 84.3539 110.878 81.4803 111.833 78.6274C112.818 75.6764 114.478 73.1554 116.769 71.134C119.08 69.0919 122.009 67.9266 125.472 67.6683H125.501C127.881 67.6098 130.279 67.574 132.629 67.5589H132.654C135.009 67.6438 137.086 68.0492 138.827 68.7657C140.578 69.4879 141.918 70.5231 142.807 71.8411C143.692 73.1554 144.121 74.9618 144.085 77.2132V77.2603L143.745 80.545C143.297 82.5343 141.996 83.709 139.98 83.9447L139.941 83.9485C137.188 84.0711 134.389 84.2257 131.623 84.4048H131.583C129.458 84.3935 128.276 83.2433 128.165 81.0805V80.9957C128.273 79.9265 128.176 79.5758 128.14 79.4872C127.843 79.2967 127.6 79.3137 127.305 79.5438C126.883 80.2056 126.55 81.1277 126.318 82.2854C126.066 83.5261 125.864 84.7989 125.718 86.0679L125.351 92.3073C125.348 93.5499 125.397 94.7982 125.499 96.0144C125.588 97.0986 125.788 97.9377 126.093 98.5091C126.223 98.5864 126.433 98.6241 126.849 98.2771C126.892 98.2187 127.083 97.8944 127.129 96.6235L127.136 96.5443C127.511 94.4267 128.776 93.1219 130.789 92.7712L130.829 92.7655C133.544 92.4884 136.293 92.2338 139.003 92.0113H139.044C139.058 92.0113 139.073 92.0094 139.086 92.0094C141.096 92.0094 142.221 93.1313 142.257 95.1734V95.2074L141.92 98.5015C141.514 100.73 140.772 102.573 139.717 103.975C138.676 105.361 137.28 106.545 135.567 107.496C133.873 108.435 131.912 109.146 129.738 109.61L129.713 109.613C127.564 109.973 125.38 110.358 123.222 110.754L123.192 110.76C122.508 110.848 121.854 110.892 121.23 110.892L121.226 110.894ZM111.311 87.2162L111.133 94.4324C111.137 97.0534 111.515 99.7026 112.254 102.288C112.965 104.779 114.251 106.753 116.072 108.154C117.853 109.527 120.127 110.013 123.03 109.642C125.183 109.246 127.363 108.863 129.511 108.503C131.57 108.061 133.421 107.392 135.013 106.508C136.584 105.635 137.861 104.554 138.806 103.297C139.751 102.039 140.421 100.364 140.797 98.3205L141.118 95.1602C141.084 93.7649 140.455 93.1408 139.084 93.1408H139.071C136.382 93.3614 133.654 93.6141 130.961 93.8894C129.439 94.1609 128.554 95.0829 128.256 96.7045C128.208 97.966 128.019 98.6995 127.645 99.0804L127.609 99.1124C126.524 100.04 125.697 99.6498 125.3 99.3349L125.217 99.269L125.164 99.1784C124.737 98.4487 124.476 97.4437 124.364 96.1068C124.261 94.8529 124.209 93.5688 124.213 92.2885V92.2564L124.586 85.9548C124.735 84.6499 124.943 83.3395 125.202 82.061C125.472 80.7204 125.877 79.6399 126.401 78.8499L126.444 78.7839L126.503 78.733C127.244 78.0956 128.082 78.0523 128.861 78.6085L128.912 78.65C129.309 79.0101 129.424 79.7323 129.297 81.0617C129.388 82.5739 130.09 83.2584 131.568 83.2735C134.329 83.0943 137.121 82.9416 139.867 82.819C141.398 82.6342 142.278 81.8442 142.629 80.33L142.951 77.1717C142.981 75.1673 142.614 73.5872 141.865 72.4728C141.103 71.3433 139.935 70.4477 138.394 69.8122C136.783 69.1485 134.841 68.7714 132.625 68.6903C130.29 68.7054 127.908 68.7431 125.544 68.7978C122.339 69.0391 119.641 70.1101 117.524 71.9806C115.385 73.8681 113.833 76.2251 112.912 78.9856C111.991 81.7386 111.454 84.5085 111.314 87.2162H111.311Z" fill="#231F20"/>
<path d="M151.253 102.265C152.312 94.2495 153.372 86.2319 154.431 78.2163C152.361 78.1899 150.285 78.1805 148.207 78.1861C147.303 78.1277 146.602 77.7996 146.103 77.1962C145.601 76.5928 145.393 75.8989 145.479 75.1183C145.615 73.87 145.749 72.6217 145.885 71.3735C145.97 70.5928 146.331 69.9027 146.976 69.3125C147.619 68.7223 148.411 68.4131 149.347 68.3848C158.57 68.7223 167.712 69.3729 176.759 70.3383C177.661 70.491 178.342 70.8644 178.803 71.4527C179.265 72.041 179.427 72.6689 179.295 73.3401C179.083 74.4149 178.871 75.4916 178.659 76.5664C178.527 77.2396 178.13 77.8128 177.472 78.2974C176.812 78.782 176.031 79.0233 175.124 79.0196C173.078 78.8857 171.03 78.7688 168.977 78.667C167.693 86.1754 166.407 93.6819 165.124 101.188C164.98 102.031 164.439 102.844 163.511 103.64C162.582 104.435 161.454 104.896 160.119 105.016C158.476 105.163 156.833 105.32 155.188 105.486C153.851 105.621 152.834 105.354 152.132 104.662C151.429 103.97 151.136 103.168 151.253 102.267V102.265Z" fill="#12B5E5"/>
<path d="M154.549 106.083C153.367 106.083 152.421 105.74 151.733 105.061C150.899 104.241 150.548 103.274 150.691 102.192L153.787 78.7744C151.926 78.7537 150.054 78.7461 148.211 78.7518H148.173C147.108 78.682 146.265 78.2804 145.668 77.5563C145.068 76.8323 144.815 75.9913 144.917 75.0579L145.324 71.3131C145.424 70.3911 145.851 69.5784 146.594 68.8977C147.335 68.2151 148.258 67.8531 149.334 67.821H149.372C158.576 68.1566 167.812 68.8166 176.824 69.7783L176.858 69.7839C177.896 69.9593 178.703 70.4043 179.253 71.1076C179.817 71.826 180.019 72.6161 179.854 73.4533L179.219 76.6795C179.06 77.4885 178.586 78.1861 177.811 78.7556C177.06 79.3081 176.164 79.5871 175.15 79.5871H175.09C173.222 79.4627 171.327 79.3533 169.453 79.259L165.683 101.285C165.517 102.263 164.927 103.174 163.881 104.07C162.862 104.943 161.614 105.452 160.17 105.58C158.546 105.725 156.889 105.884 155.246 106.05C155.006 106.074 154.774 106.087 154.55 106.087L154.549 106.083ZM149.426 77.6186C151.09 77.6186 152.771 77.6299 154.439 77.6506L155.078 77.6582L151.816 102.339C151.72 103.061 151.954 103.689 152.531 104.256C153.106 104.824 153.955 105.041 155.129 104.92C156.778 104.752 158.44 104.594 160.068 104.449C161.287 104.339 162.293 103.934 163.14 103.208C163.965 102.501 164.443 101.788 164.564 101.09L168.502 78.0749L169.005 78.0994C171.042 78.1993 173.108 78.3181 175.145 78.452H175.148C175.925 78.452 176.576 78.2521 177.136 77.8411C177.682 77.4394 178 76.985 178.104 76.457L178.739 73.2308C178.839 72.7236 178.714 72.2559 178.357 71.8015C177.983 71.3263 177.434 71.0303 176.682 70.9002C167.708 69.9423 158.512 69.2861 149.347 68.9524C148.549 68.9788 147.899 69.2333 147.362 69.7292C146.819 70.227 146.52 70.7852 146.45 71.4357L146.044 75.1805C145.976 75.8084 146.138 76.3514 146.541 76.8379C146.934 77.315 147.487 77.5714 148.228 77.6223C148.627 77.6223 149.028 77.6223 149.428 77.6223L149.426 77.6186Z" fill="#231F20"/>
</g>
<defs>
<clipPath id="clip0_120_121">
<rect width="180" height="178" fill="white"/>
</clipPath>
</defs>
</svg>
